<svg width="610" height="240" viewBox="0 0 610 240" fill="none" xmlns="http://www.w3.org/2000/svg">
<path d="M572.213 5.454C572.285 5.418 572.363 5.4 572.447 5.4H573.419C573.539 5.4 573.599 5.46 573.599 5.58V17.82C573.599 17.94 573.539 18 573.419 18H572.501C572.381 18 572.321 17.94 572.321 17.82V6.858C572.321 6.834 572.309 6.816 572.285 6.804C572.273 6.792 572.255 6.792 572.231 6.804L570.323 7.578L570.251 7.596C570.179 7.596 570.131 7.548 570.107 7.452L570.017 6.768V6.732C570.017 6.672 570.059 6.612 570.143 6.552L572.213 5.454ZM583.906 13.374C584.026 13.374 584.086 13.434 584.086 13.554V14.346C584.086 14.466 584.026 14.526 583.906 14.526H583.132C583.084 14.526 583.06 14.55 583.06 14.598V17.82C583.06 17.94 583 18 582.88 18H581.962C581.842 18 581.782 17.94 581.782 17.82V14.598C581.782 14.55 581.758 14.526 581.71 14.526H576.328C576.208 14.526 576.148 14.466 576.148 14.346V13.68C576.148 13.62 576.166 13.548 576.202 13.464L579.892 5.526C579.928 5.442 579.994 5.4 580.09 5.4H581.044C581.104 5.4 581.146 5.424 581.17 5.472C581.206 5.508 581.212 5.556 581.188 5.616L577.606 13.284C577.594 13.308 577.594 13.332 577.606 13.356C577.618 13.368 577.636 13.374 577.66 13.374H581.71C581.758 13.374 581.782 13.35 581.782 13.302V10.404C581.782 10.284 581.842 10.224 581.962 10.224H582.88C583 10.224 583.06 10.284 583.06 10.404V13.302C583.06 13.35 583.084 13.374 583.132 13.374H583.906ZM586.767 5.454C586.839 5.418 586.917 5.4 587.001 5.4H587.973C588.093 5.4 588.153 5.46 588.153 5.58V17.82C588.153 17.94 588.093 18 587.973 18H587.055C586.935 18 586.875 17.94 586.875 17.82V6.858C586.875 6.834 586.863 6.816 586.839 6.804C586.827 6.792 586.809 6.792 586.785 6.804L584.877 7.578L584.805 7.596C584.733 7.596 584.685 7.548 584.661 7.452L584.571 6.768V6.732C584.571 6.672 584.613 6.612 584.697 6.552L586.767 5.454ZM592.304 17.964C592.004 17.964 591.758 17.868 591.566 17.676C591.386 17.484 591.296 17.244 591.296 16.956C591.296 16.656 591.386 16.416 591.566 16.236C591.758 16.044 592.004 15.948 592.304 15.948C592.592 15.948 592.832 16.044 593.024 16.236C593.216 16.416 593.312 16.656 593.312 16.956C593.312 17.244 593.216 17.484 593.024 17.676C592.832 17.868 592.592 17.964 592.304 17.964ZM602.768 12.708C602.996 13.2 603.11 13.788 603.11 14.472C603.11 15.3 602.936 16.002 602.588 16.578C602.3 17.07 601.892 17.454 601.364 17.73C600.836 18.006 600.224 18.144 599.528 18.144C598.808 18.144 598.178 18.006 597.638 17.73C597.098 17.442 596.684 17.028 596.396 16.488C596.06 15.888 595.892 15.21 595.892 14.454C595.892 13.818 596.018 13.218 596.27 12.654C596.546 12.054 596.984 11.604 597.584 11.304C597.644 11.28 597.644 11.25 597.584 11.214C597.188 10.986 596.864 10.68 596.612 10.296C596.252 9.78 596.072 9.192 596.072 8.532C596.072 7.86 596.252 7.248 596.612 6.696C596.9 6.228 597.296 5.868 597.8 5.616C598.316 5.352 598.892 5.22 599.528 5.22C600.188 5.22 600.764 5.352 601.256 5.616C601.748 5.868 602.138 6.228 602.426 6.696C602.774 7.26 602.948 7.872 602.948 8.532C602.948 9.192 602.768 9.792 602.408 10.332C602.192 10.656 601.874 10.95 601.454 11.214C601.394 11.25 601.394 11.28 601.454 11.304C602.066 11.604 602.504 12.072 602.768 12.708ZM597.62 7.47C597.428 7.83 597.332 8.184 597.332 8.532C597.332 9.036 597.458 9.474 597.71 9.846C597.902 10.146 598.148 10.374 598.448 10.53C598.76 10.686 599.114 10.764 599.51 10.764C599.906 10.764 600.26 10.686 600.572 10.53C600.884 10.362 601.136 10.128 601.328 9.828C601.556 9.504 601.67 9.066 601.67 8.514C601.67 8.118 601.58 7.758 601.4 7.434C601.22 7.098 600.968 6.834 600.644 6.642C600.32 6.438 599.936 6.336 599.492 6.336C599.072 6.336 598.7 6.438 598.376 6.642C598.052 6.846 597.8 7.122 597.62 7.47ZM601.382 16.092C601.682 15.636 601.832 15.066 601.832 14.382C601.832 13.818 601.736 13.332 601.544 12.924C601.184 12.132 600.506 11.736 599.51 11.736C598.562 11.736 597.902 12.108 597.53 12.852C597.314 13.236 597.206 13.752 597.206 14.4C597.206 15.072 597.338 15.618 597.602 16.038C598.01 16.698 598.652 17.028 599.528 17.028C600.38 17.028 600.998 16.716 601.382 16.092ZM606.947 5.454C607.019 5.418 607.097 5.4 607.181 5.4H608.153C608.273 5.4 608.333 5.46 608.333 5.58V17.82C608.333 17.94 608.273 18 608.153 18H607.235C607.115 18 607.055 17.94 607.055 17.82V6.858C607.055 6.834 607.043 6.816 607.019 6.804C607.007 6.792 606.989 6.792 606.965 6.804L605.057 7.578L604.985 7.596C604.913 7.596 604.865 7.548 604.841 7.452L604.751 6.768V6.732C604.751 6.672 604.793 6.612 604.877 6.552L606.947 5.454Z" fill="white"/>
<path d="M563.336 75.454C563.408 75.418 563.486 75.4 563.57 75.4H564.542C564.662 75.4 564.722 75.46 564.722 75.58V87.82C564.722 87.94 564.662 88 564.542 88H563.624C563.504 88 563.444 87.94 563.444 87.82V76.858C563.444 76.834 563.432 76.816 563.408 76.804C563.396 76.792 563.378 76.792 563.354 76.804L561.446 77.578L561.374 77.596C561.302 77.596 561.254 77.548 561.23 77.452L561.14 76.768V76.732C561.14 76.672 561.182 76.612 561.266 76.552L563.336 75.454ZM575.029 83.374C575.149 83.374 575.209 83.434 575.209 83.554V84.346C575.209 84.466 575.149 84.526 575.029 84.526H574.255C574.207 84.526 574.183 84.55 574.183 84.598V87.82C574.183 87.94 574.123 88 574.003 88H573.085C572.965 88 572.905 87.94 572.905 87.82V84.598C572.905 84.55 572.881 84.526 572.833 84.526H567.451C567.331 84.526 567.271 84.466 567.271 84.346V83.68C567.271 83.62 567.289 83.548 567.325 83.464L571.015 75.526C571.051 75.442 571.117 75.4 571.213 75.4H572.167C572.227 75.4 572.269 75.424 572.293 75.472C572.329 75.508 572.335 75.556 572.311 75.616L568.729 83.284C568.717 83.308 568.717 83.332 568.729 83.356C568.741 83.368 568.759 83.374 568.783 83.374H572.833C572.881 83.374 572.905 83.35 572.905 83.302V80.404C572.905 80.284 572.965 80.224 573.085 80.224H574.003C574.123 80.224 574.183 80.284 574.183 80.404V83.302C574.183 83.35 574.207 83.374 574.255 83.374H575.029ZM581.361 88.18C580.209 88.18 579.291 87.85 578.607 87.19C577.923 86.53 577.581 85.648 577.581 84.544V78.856C577.581 77.752 577.923 76.876 578.607 76.228C579.291 75.568 580.209 75.238 581.361 75.238C582.525 75.238 583.455 75.568 584.151 76.228C584.847 76.888 585.195 77.764 585.195 78.856V84.544C585.195 85.648 584.847 86.53 584.151 87.19C583.455 87.85 582.525 88.18 581.361 88.18ZM581.361 87.064C582.129 87.064 582.747 86.842 583.215 86.398C583.683 85.954 583.917 85.36 583.917 84.616V78.802C583.917 78.07 583.683 77.482 583.215 77.038C582.759 76.594 582.141 76.372 581.361 76.372C580.605 76.372 579.999 76.594 579.543 77.038C579.087 77.482 578.859 78.07 578.859 78.802V84.616C578.859 85.36 579.087 85.954 579.543 86.398C579.999 86.842 580.605 87.064 581.361 87.064ZM588.964 87.964C588.664 87.964 588.418 87.868 588.226 87.676C588.046 87.484 587.956 87.244 587.956 86.956C587.956 86.656 588.046 86.416 588.226 86.236C588.418 86.044 588.664 85.948 588.964 85.948C589.252 85.948 589.492 86.044 589.684 86.236C589.876 86.416 589.972 86.656 589.972 86.956C589.972 87.244 589.876 87.484 589.684 87.676C589.492 87.868 589.252 87.964 588.964 87.964ZM599.23 82.042C599.47 82.63 599.59 83.332 599.59 84.148C599.59 84.808 599.5 85.39 599.32 85.894C599.08 86.614 598.672 87.172 598.096 87.568C597.532 87.952 596.83 88.144 595.99 88.144C595.15 88.144 594.43 87.928 593.83 87.496C593.23 87.052 592.816 86.458 592.588 85.714C592.48 85.378 592.414 84.922 592.39 84.346C592.39 84.226 592.45 84.166 592.57 84.166H593.488C593.608 84.166 593.668 84.226 593.668 84.346C593.692 84.694 593.734 85.018 593.794 85.318C593.926 85.846 594.178 86.266 594.55 86.578C594.934 86.878 595.408 87.028 595.972 87.028C597.052 87.028 597.754 86.548 598.078 85.588C598.222 85.192 598.294 84.7 598.294 84.112C598.294 83.392 598.198 82.804 598.006 82.348C597.622 81.484 596.944 81.052 595.972 81.052C595.792 81.052 595.57 81.118 595.306 81.25C595.258 81.274 595.222 81.286 595.198 81.286C595.15 81.286 595.108 81.256 595.072 81.196L594.604 80.566C594.544 80.47 594.55 80.386 594.622 80.314L597.79 76.606C597.826 76.546 597.814 76.516 597.754 76.516H592.678C592.558 76.516 592.498 76.456 592.498 76.336V75.58C592.498 75.46 592.558 75.4 592.678 75.4H599.338C599.458 75.4 599.518 75.46 599.518 75.58V76.462C599.518 76.522 599.488 76.594 599.428 76.678L596.548 80.134C596.524 80.158 596.518 80.182 596.53 80.206C596.542 80.218 596.566 80.224 596.602 80.224C597.886 80.308 598.762 80.914 599.23 82.042ZM608.944 82.492C609.052 83.02 609.106 83.56 609.106 84.112C609.106 84.7 609.052 85.204 608.944 85.624C608.74 86.392 608.332 87.004 607.72 87.46C607.108 87.904 606.37 88.126 605.506 88.126C604.654 88.126 603.928 87.91 603.328 87.478C602.728 87.046 602.32 86.47 602.104 85.75C602.02 85.486 601.966 85.222 601.942 84.958V84.922C601.942 84.826 601.996 84.778 602.104 84.778H603.058C603.178 84.778 603.244 84.838 603.256 84.958C603.256 85.03 603.28 85.15 603.328 85.318C603.448 85.834 603.694 86.248 604.066 86.56C604.45 86.86 604.924 87.01 605.488 87.01C606.064 87.01 606.544 86.848 606.928 86.524C607.324 86.2 607.582 85.756 607.702 85.192C607.774 84.916 607.81 84.556 607.81 84.112C607.81 83.704 607.78 83.314 607.72 82.942C607.636 82.39 607.396 81.97 607 81.682C606.604 81.394 606.112 81.25 605.524 81.25C604.996 81.25 604.522 81.37 604.102 81.61C603.682 81.85 603.412 82.168 603.292 82.564C603.256 82.672 603.19 82.726 603.094 82.726H602.122C602.002 82.726 601.942 82.666 601.942 82.546V75.58C601.942 75.46 602.002 75.4 602.122 75.4H608.422C608.542 75.4 608.602 75.46 608.602 75.58V76.336C608.602 76.456 608.542 76.516 608.422 76.516H603.292C603.244 76.516 603.22 76.54 603.22 76.588L603.202 80.944C603.202 80.968 603.208 80.986 603.22 80.998C603.244 81.01 603.268 81.004 603.292 80.98C603.592 80.704 603.946 80.494 604.354 80.35C604.762 80.194 605.194 80.116 605.65 80.116C606.502 80.116 607.222 80.326 607.81 80.746C608.398 81.154 608.776 81.736 608.944 82.492Z" fill="white"/>
<path d="M565.392 145.454C565.464 145.418 565.542 145.4 565.626 145.4H566.598C566.718 145.4 566.778 145.46 566.778 145.58V157.82C566.778 157.94 566.718 158 566.598 158H565.68C565.56 158 565.5 157.94 565.5 157.82V146.858C565.5 146.834 565.488 146.816 565.464 146.804C565.452 146.792 565.434 146.792 565.41 146.804L563.502 147.578L563.43 147.596C563.358 147.596 563.31 147.548 563.286 147.452L563.196 146.768V146.732C563.196 146.672 563.238 146.612 563.322 146.552L565.392 145.454ZM576.185 152.042C576.425 152.63 576.545 153.332 576.545 154.148C576.545 154.808 576.455 155.39 576.275 155.894C576.035 156.614 575.627 157.172 575.051 157.568C574.487 157.952 573.785 158.144 572.945 158.144C572.105 158.144 571.385 157.928 570.785 157.496C570.185 157.052 569.771 156.458 569.543 155.714C569.435 155.378 569.369 154.922 569.345 154.346C569.345 154.226 569.405 154.166 569.525 154.166H570.443C570.563 154.166 570.623 154.226 570.623 154.346C570.647 154.694 570.689 155.018 570.749 155.318C570.881 155.846 571.133 156.266 571.505 156.578C571.889 156.878 572.363 157.028 572.927 157.028C574.007 157.028 574.709 156.548 575.033 155.588C575.177 155.192 575.249 154.7 575.249 154.112C575.249 153.392 575.153 152.804 574.961 152.348C574.577 151.484 573.899 151.052 572.927 151.052C572.747 151.052 572.525 151.118 572.261 151.25C572.213 151.274 572.177 151.286 572.153 151.286C572.105 151.286 572.063 151.256 572.027 151.196L571.559 150.566C571.499 150.47 571.505 150.386 571.577 150.314L574.745 146.606C574.781 146.546 574.769 146.516 574.709 146.516H569.633C569.513 146.516 569.453 146.456 569.453 146.336V145.58C569.453 145.46 569.513 145.4 569.633 145.4H576.293C576.413 145.4 576.473 145.46 576.473 145.58V146.462C576.473 146.522 576.443 146.594 576.383 146.678L573.503 150.134C573.479 150.158 573.473 150.182 573.485 150.206C573.497 150.218 573.521 150.224 573.557 150.224C574.841 150.308 575.717 150.914 576.185 152.042ZM585.701 147.614C585.845 148.094 585.917 148.658 585.917 149.306V154.922C585.917 155.906 585.593 156.692 584.945 157.28C584.297 157.856 583.451 158.144 582.407 158.144C581.399 158.144 580.577 157.862 579.941 157.298C579.317 156.722 579.005 155.978 579.005 155.066V154.814C579.005 154.694 579.065 154.634 579.185 154.634H580.103C580.223 154.634 580.283 154.694 580.283 154.814V154.958C580.283 155.57 580.481 156.068 580.877 156.452C581.273 156.836 581.783 157.028 582.407 157.028C583.055 157.028 583.589 156.83 584.009 156.434C584.429 156.026 584.639 155.492 584.639 154.832V152.204C584.639 152.18 584.627 152.168 584.603 152.168C584.579 152.156 584.561 152.162 584.549 152.186C584.021 152.894 583.229 153.248 582.173 153.248C581.417 153.248 580.781 153.08 580.265 152.744C579.761 152.408 579.377 151.934 579.113 151.322C578.861 150.818 578.735 150.134 578.735 149.27C578.735 148.538 578.825 147.938 579.005 147.47C579.257 146.774 579.659 146.234 580.211 145.85C580.775 145.466 581.465 145.274 582.281 145.274C583.145 145.274 583.871 145.484 584.459 145.904C585.059 146.312 585.473 146.882 585.701 147.614ZM582.335 152.132C582.863 152.132 583.307 152.006 583.667 151.754C584.039 151.49 584.297 151.13 584.441 150.674C584.573 150.326 584.639 149.84 584.639 149.216C584.639 148.7 584.585 148.262 584.477 147.902C584.333 147.446 584.075 147.08 583.703 146.804C583.331 146.528 582.875 146.39 582.335 146.39C581.819 146.39 581.375 146.522 581.003 146.786C580.631 147.038 580.367 147.41 580.211 147.902C580.079 148.238 580.013 148.694 580.013 149.27C580.013 149.882 580.091 150.362 580.247 150.71C580.391 151.142 580.643 151.49 581.003 151.754C581.363 152.006 581.807 152.132 582.335 152.132ZM589.58 157.964C589.28 157.964 589.034 157.868 588.842 157.676C588.662 157.484 588.572 157.244 588.572 156.956C588.572 156.656 588.662 156.416 588.842 156.236C589.034 156.044 589.28 155.948 589.58 155.948C589.868 155.948 590.108 156.044 590.3 156.236C590.492 156.416 590.588 156.656 590.588 156.956C590.588 157.244 590.492 157.484 590.3 157.676C590.108 157.868 589.868 157.964 589.58 157.964ZM600.043 152.708C600.271 153.2 600.385 153.788 600.385 154.472C600.385 155.3 600.211 156.002 599.863 156.578C599.575 157.07 599.167 157.454 598.639 157.73C598.111 158.006 597.499 158.144 596.803 158.144C596.083 158.144 595.453 158.006 594.913 157.73C594.373 157.442 593.959 157.028 593.671 156.488C593.335 155.888 593.167 155.21 593.167 154.454C593.167 153.818 593.293 153.218 593.545 152.654C593.821 152.054 594.259 151.604 594.859 151.304C594.919 151.28 594.919 151.25 594.859 151.214C594.463 150.986 594.139 150.68 593.887 150.296C593.527 149.78 593.347 149.192 593.347 148.532C593.347 147.86 593.527 147.248 593.887 146.696C594.175 146.228 594.571 145.868 595.075 145.616C595.591 145.352 596.167 145.22 596.803 145.22C597.463 145.22 598.039 145.352 598.531 145.616C599.023 145.868 599.413 146.228 599.701 146.696C600.049 147.26 600.223 147.872 600.223 148.532C600.223 149.192 600.043 149.792 599.683 150.332C599.467 150.656 599.149 150.95 598.729 151.214C598.669 151.25 598.669 151.28 598.729 151.304C599.341 151.604 599.779 152.072 600.043 152.708ZM594.895 147.47C594.703 147.83 594.607 148.184 594.607 148.532C594.607 149.036 594.733 149.474 594.985 149.846C595.177 150.146 595.423 150.374 595.723 150.53C596.035 150.686 596.389 150.764 596.785 150.764C597.181 150.764 597.535 150.686 597.847 150.53C598.159 150.362 598.411 150.128 598.603 149.828C598.831 149.504 598.945 149.066 598.945 148.514C598.945 148.118 598.855 147.758 598.675 147.434C598.495 147.098 598.243 146.834 597.919 146.642C597.595 146.438 597.211 146.336 596.767 146.336C596.347 146.336 595.975 146.438 595.651 146.642C595.327 146.846 595.075 147.122 594.895 147.47ZM598.657 156.092C598.957 155.636 599.107 155.066 599.107 154.382C599.107 153.818 599.011 153.332 598.819 152.924C598.459 152.132 597.781 151.736 596.785 151.736C595.837 151.736 595.177 152.108 594.805 152.852C594.589 153.236 594.481 153.752 594.481 154.4C594.481 155.072 594.613 155.618 594.877 156.038C595.285 156.698 595.927 157.028 596.803 157.028C597.655 157.028 598.273 156.716 598.657 156.092ZM604.21 158C604.15 158 604.102 157.982 604.066 157.946C604.042 157.898 604.042 157.844 604.066 157.784L608.224 146.606C608.236 146.582 608.236 146.564 608.224 146.552C608.212 146.528 608.194 146.516 608.17 146.516H603.31C603.262 146.516 603.238 146.54 603.238 146.588V147.416C603.238 147.536 603.178 147.596 603.058 147.596H602.32C602.2 147.596 602.14 147.536 602.14 147.416L602.158 145.58C602.158 145.46 602.218 145.4 602.338 145.4H609.43C609.55 145.4 609.61 145.46 609.61 145.58V146.408C609.61 146.456 609.598 146.528 609.574 146.624L605.434 157.856C605.398 157.952 605.326 158 605.218 158H604.21Z" fill="white"/>
<path d="M568.732 215.454C568.804 215.418 568.882 215.4 568.966 215.4H569.938C570.058 215.4 570.118 215.46 570.118 215.58V227.82C570.118 227.94 570.058 228 569.938 228H569.02C568.9 228 568.84 227.94 568.84 227.82V216.858C568.84 216.834 568.828 216.816 568.804 216.804C568.792 216.792 568.774 216.792 568.75 216.804L566.842 217.578L566.77 217.596C566.698 217.596 566.65 217.548 566.626 217.452L566.536 216.768V216.732C566.536 216.672 566.578 216.612 566.662 216.552L568.732 215.454ZM579.525 222.042C579.765 222.63 579.885 223.332 579.885 224.148C579.885 224.808 579.795 225.39 579.615 225.894C579.375 226.614 578.967 227.172 578.391 227.568C577.827 227.952 577.125 228.144 576.285 228.144C575.445 228.144 574.725 227.928 574.125 227.496C573.525 227.052 573.111 226.458 572.883 225.714C572.775 225.378 572.709 224.922 572.685 224.346C572.685 224.226 572.745 224.166 572.865 224.166H573.783C573.903 224.166 573.963 224.226 573.963 224.346C573.987 224.694 574.029 225.018 574.089 225.318C574.221 225.846 574.473 226.266 574.845 226.578C575.229 226.878 575.703 227.028 576.267 227.028C577.347 227.028 578.049 226.548 578.373 225.588C578.517 225.192 578.589 224.7 578.589 224.112C578.589 223.392 578.493 222.804 578.301 222.348C577.917 221.484 577.239 221.052 576.267 221.052C576.087 221.052 575.865 221.118 575.601 221.25C575.553 221.274 575.517 221.286 575.493 221.286C575.445 221.286 575.403 221.256 575.367 221.196L574.899 220.566C574.839 220.47 574.845 220.386 574.917 220.314L578.085 216.606C578.121 216.546 578.109 216.516 578.049 216.516H572.973C572.853 216.516 572.793 216.456 572.793 216.336V215.58C572.793 215.46 572.853 215.4 572.973 215.4H579.633C579.753 215.4 579.813 215.46 579.813 215.58V216.462C579.813 216.522 579.783 216.594 579.723 216.678L576.843 220.134C576.819 220.158 576.813 220.182 576.825 220.206C576.837 220.218 576.861 220.224 576.897 220.224C578.181 220.308 579.057 220.914 579.525 222.042ZM588.987 222.708C589.215 223.2 589.329 223.788 589.329 224.472C589.329 225.3 589.155 226.002 588.807 226.578C588.519 227.07 588.111 227.454 587.583 227.73C587.055 228.006 586.443 228.144 585.747 228.144C585.027 228.144 584.397 228.006 583.857 227.73C583.317 227.442 582.903 227.028 582.615 226.488C582.279 225.888 582.111 225.21 582.111 224.454C582.111 223.818 582.237 223.218 582.489 222.654C582.765 222.054 583.203 221.604 583.803 221.304C583.863 221.28 583.863 221.25 583.803 221.214C583.407 220.986 583.083 220.68 582.831 220.296C582.471 219.78 582.291 219.192 582.291 218.532C582.291 217.86 582.471 217.248 582.831 216.696C583.119 216.228 583.515 215.868 584.019 215.616C584.535 215.352 585.111 215.22 585.747 215.22C586.407 215.22 586.983 215.352 587.475 215.616C587.967 215.868 588.357 216.228 588.645 216.696C588.993 217.26 589.167 217.872 589.167 218.532C589.167 219.192 588.987 219.792 588.627 220.332C588.411 220.656 588.093 220.95 587.673 221.214C587.613 221.25 587.613 221.28 587.673 221.304C588.285 221.604 588.723 222.072 588.987 222.708ZM583.839 217.47C583.647 217.83 583.551 218.184 583.551 218.532C583.551 219.036 583.677 219.474 583.929 219.846C584.121 220.146 584.367 220.374 584.667 220.53C584.979 220.686 585.333 220.764 585.729 220.764C586.125 220.764 586.479 220.686 586.791 220.53C587.103 220.362 587.355 220.128 587.547 219.828C587.775 219.504 587.889 219.066 587.889 218.514C587.889 218.118 587.799 217.758 587.619 217.434C587.439 217.098 587.187 216.834 586.863 216.642C586.539 216.438 586.155 216.336 585.711 216.336C585.291 216.336 584.919 216.438 584.595 216.642C584.271 216.846 584.019 217.122 583.839 217.47ZM587.601 226.092C587.901 225.636 588.051 225.066 588.051 224.382C588.051 223.818 587.955 223.332 587.763 222.924C587.403 222.132 586.725 221.736 585.729 221.736C584.781 221.736 584.121 222.108 583.749 222.852C583.533 223.236 583.425 223.752 583.425 224.4C583.425 225.072 583.557 225.618 583.821 226.038C584.229 226.698 584.871 227.028 585.747 227.028C586.599 227.028 587.217 226.716 587.601 226.092ZM592.92 227.964C592.62 227.964 592.374 227.868 592.182 227.676C592.002 227.484 591.912 227.244 591.912 226.956C591.912 226.656 592.002 226.416 592.182 226.236C592.374 226.044 592.62 225.948 592.92 225.948C593.208 225.948 593.448 226.044 593.64 226.236C593.832 226.416 593.928 226.656 593.928 226.956C593.928 227.244 593.832 227.484 593.64 227.676C593.448 227.868 593.208 227.964 592.92 227.964ZM604.085 223.374C604.205 223.374 604.265 223.434 604.265 223.554V224.346C604.265 224.466 604.205 224.526 604.085 224.526H603.311C603.263 224.526 603.239 224.55 603.239 224.598V227.82C603.239 227.94 603.179 228 603.059 228H602.141C602.021 228 601.961 227.94 601.961 227.82V224.598C601.961 224.55 601.937 224.526 601.889 224.526H596.507C596.387 224.526 596.327 224.466 596.327 224.346V223.68C596.327 223.62 596.345 223.548 596.381 223.464L600.071 215.526C600.107 215.442 600.173 215.4 600.269 215.4H601.223C601.283 215.4 601.325 215.424 601.349 215.472C601.385 215.508 601.391 215.556 601.367 215.616L597.785 223.284C597.773 223.308 597.773 223.332 597.785 223.356C597.797 223.368 597.815 223.374 597.839 223.374H601.889C601.937 223.374 601.961 223.35 601.961 223.302V220.404C601.961 220.284 602.021 220.224 602.141 220.224H603.059C603.179 220.224 603.239 220.284 603.239 220.404V223.302C603.239 223.35 603.263 223.374 603.311 223.374H604.085ZM606.947 215.454C607.019 215.418 607.097 215.4 607.181 215.4H608.153C608.273 215.4 608.333 215.46 608.333 215.58V227.82C608.333 227.94 608.273 228 608.153 228H607.235C607.115 228 607.055 227.94 607.055 227.82V216.858C607.055 216.834 607.043 216.816 607.019 216.804C607.007 216.792 606.989 216.792 606.965 216.804L605.057 217.578L604.985 217.596C604.913 217.596 604.865 217.548 604.841 217.452L604.751 216.768V216.732C604.751 216.672 604.793 216.612 604.877 216.552L606.947 215.454Z" fill="white"/>
<line x1="2" y1="29.7501" x2="610" y2="29.75" stroke="#495057" stroke-width="0.5"/>
<line x1="2" y1="99.7501" x2="610" y2="99.75" stroke="#495057" stroke-width="0.5"/>
<line x1="2" y1="169.75" x2="610" y2="169.75" stroke="#495057" stroke-width="0.5"/>
<line x1="2" y1="239.75" x2="610" y2="239.75" stroke="#495057" stroke-width="0.5"/>
<path d="M2 105.728C2 105.728 83.8598 85.0188 107.846 78.1163C131.833 71.2137 189.053 144.364 213.692 137.281C238.331 130.198 310.605 7.79611 336.077 11.0643C361.548 14.3325 405.786 158.616 432 153.058C458.214 147.5 518 228 518 228" stroke="#FF5B5B" stroke-width="4" stroke-linecap="round"/>
</svg>
