<svg width="194" height="64" viewBox="0 0 194 64" fill="none" xmlns="http://www.w3.org/2000/svg">
<path d="M83.214 49.336C80.386 49.336 78.16 48.734 76.536 47.53C74.94 46.298 74.142 44.632 74.142 42.532C74.142 42.28 74.17 41.93 74.226 41.482L74.394 40.18C74.45 39.9 74.604 39.76 74.856 39.76H76.83C77.082 39.76 77.208 39.9 77.208 40.18L77.04 41.314C77.012 41.454 76.998 41.664 76.998 41.944C76.998 43.372 77.586 44.534 78.762 45.43C79.966 46.298 81.632 46.732 83.76 46.732C85.832 46.732 87.47 46.284 88.674 45.388C89.878 44.464 90.578 43.246 90.774 41.734C90.802 41.594 90.816 41.37 90.816 41.062C90.816 39.886 90.312 38.892 89.304 38.08C88.324 37.24 86.588 36.246 84.096 35.098C82.304 34.342 80.904 33.684 79.896 33.124C78.888 32.536 78.076 31.808 77.46 30.94C76.844 30.072 76.536 29.008 76.536 27.748C76.536 27.552 76.564 27.202 76.62 26.698C76.9 24.346 77.908 22.526 79.644 21.238C81.408 19.922 83.676 19.264 86.448 19.264C89.22 19.264 91.376 19.894 92.916 21.154C94.484 22.386 95.268 24.052 95.268 26.152C95.268 26.376 95.24 26.74 95.184 27.244L95.1 28.168C95.044 28.448 94.89 28.588 94.638 28.588H92.58C92.468 28.588 92.37 28.546 92.286 28.462C92.23 28.378 92.216 28.28 92.244 28.168L92.328 27.412C92.356 27.244 92.37 27.02 92.37 26.74C92.37 25.284 91.81 24.108 90.69 23.212C89.598 22.316 88.03 21.868 85.986 21.868C84.082 21.868 82.556 22.274 81.408 23.086C80.288 23.898 79.63 25.074 79.434 26.614C79.406 26.782 79.392 27.006 79.392 27.286C79.392 28.126 79.616 28.84 80.064 29.428C80.54 30.016 81.212 30.548 82.08 31.024C82.948 31.472 84.236 32.046 85.944 32.746C87.68 33.502 89.08 34.216 90.144 34.888C91.208 35.56 92.062 36.358 92.706 37.282C93.378 38.206 93.714 39.312 93.714 40.6C93.714 41.048 93.7 41.384 93.672 41.608C93.392 43.96 92.328 45.836 90.48 47.236C88.632 48.636 86.21 49.336 83.214 49.336ZM109.9 29.806C109.872 29.918 109.816 30.016 109.732 30.1C109.648 30.184 109.55 30.226 109.438 30.226H104.818C104.706 30.226 104.65 30.282 104.65 30.394L103.096 42.784C103.068 43.008 103.054 43.302 103.054 43.666C103.054 44.674 103.32 45.388 103.852 45.808C104.384 46.228 105.196 46.438 106.288 46.438H107.296C107.548 46.438 107.674 46.578 107.674 46.858L107.464 48.58C107.408 48.86 107.254 49 107.002 49C106.666 49.028 106.162 49.042 105.49 49.042C103.726 49.042 102.382 48.748 101.458 48.16C100.562 47.572 100.114 46.494 100.114 44.926C100.114 44.674 100.142 44.268 100.198 43.708L101.836 30.394C101.836 30.282 101.78 30.226 101.668 30.226H99.1901C98.9101 30.226 98.7981 30.086 98.8541 29.806L99.0221 28.168C99.0501 28.056 99.1061 27.958 99.1901 27.874C99.2741 27.79 99.3721 27.748 99.4841 27.748H102.004C102.032 27.748 102.06 27.734 102.088 27.706C102.144 27.678 102.172 27.636 102.172 27.58L102.76 22.708C102.816 22.428 102.97 22.288 103.222 22.288H105.238C105.35 22.288 105.434 22.33 105.49 22.414C105.574 22.498 105.602 22.596 105.574 22.708L104.986 27.58C104.986 27.692 105.028 27.748 105.112 27.748H109.732C110.012 27.748 110.124 27.888 110.068 28.168L109.9 29.806ZM120.269 49.336C118.309 49.336 116.685 48.818 115.397 47.782C114.109 46.746 113.311 45.318 113.003 43.498C112.919 42.91 112.877 42.238 112.877 41.482C112.877 40.642 112.947 39.592 113.087 38.332C113.339 36.204 113.731 34.496 114.263 33.208C114.991 31.416 116.125 30.002 117.665 28.966C119.233 27.93 121.011 27.412 122.999 27.412C124.931 27.412 126.527 27.93 127.787 28.966C129.075 30.002 129.873 31.402 130.181 33.166C130.293 33.698 130.349 34.356 130.349 35.14C130.349 35.756 130.265 36.82 130.097 38.332C129.817 40.572 129.425 42.294 128.921 43.498C128.193 45.318 127.059 46.746 125.519 47.782C123.979 48.818 122.229 49.336 120.269 49.336ZM120.605 46.732C121.893 46.732 123.041 46.368 124.049 45.64C125.085 44.884 125.841 43.876 126.317 42.616C126.681 41.664 126.975 40.25 127.199 38.374C127.367 37.058 127.451 35.966 127.451 35.098C127.451 34.65 127.437 34.328 127.409 34.132C127.241 32.872 126.723 31.878 125.855 31.15C125.015 30.394 123.937 30.016 122.621 30.016C121.305 30.016 120.143 30.394 119.135 31.15C118.127 31.878 117.371 32.872 116.867 34.132C116.531 35.056 116.251 36.47 116.027 38.374C115.859 39.634 115.775 40.712 115.775 41.608C115.775 42.084 115.789 42.42 115.817 42.616C115.957 43.876 116.447 44.884 117.287 45.64C118.155 46.368 119.261 46.732 120.605 46.732ZM142.416 49.336C140.456 49.336 138.846 48.818 137.586 47.782C136.326 46.718 135.542 45.29 135.234 43.498C135.15 42.938 135.108 42.35 135.108 41.734C135.108 40.726 135.192 39.578 135.36 38.29C135.612 36.218 136.004 34.51 136.536 33.166C137.236 31.43 138.356 30.044 139.896 29.008C141.436 27.944 143.186 27.412 145.146 27.412C147.134 27.412 148.786 27.93 150.102 28.966C151.418 30.002 152.202 31.29 152.454 32.83C152.51 33.166 152.538 33.586 152.538 34.09C152.538 34.342 152.398 34.496 152.118 34.552L150.06 34.846H149.976C149.752 34.846 149.64 34.72 149.64 34.468L149.598 33.838C149.486 32.774 148.996 31.878 148.128 31.15C147.26 30.394 146.154 30.016 144.81 30.016C143.466 30.016 142.29 30.394 141.282 31.15C140.274 31.878 139.56 32.858 139.14 34.09C138.748 35.098 138.454 36.512 138.258 38.332C138.118 39.424 138.048 40.474 138.048 41.482C138.048 42.042 138.062 42.42 138.09 42.616C138.202 43.848 138.664 44.842 139.476 45.598C140.288 46.354 141.38 46.732 142.752 46.732C144.096 46.732 145.286 46.382 146.322 45.682C147.386 44.954 148.1 44.03 148.464 42.91C148.492 42.882 148.506 42.826 148.506 42.742L148.548 42.574C148.632 42.294 148.814 42.182 149.094 42.238L151.068 42.574C151.348 42.63 151.446 42.784 151.362 43.036C151.306 43.288 151.222 43.568 151.11 43.876C150.494 45.5 149.388 46.816 147.792 47.824C146.224 48.832 144.432 49.336 142.416 49.336ZM156.272 49C156.02 49 155.894 48.86 155.894 48.58L159.422 20.02C159.478 19.74 159.632 19.6 159.884 19.6H161.942C162.082 19.6 162.18 19.642 162.236 19.726C162.32 19.81 162.348 19.908 162.32 20.02L160.22 37.198C160.192 37.254 160.192 37.296 160.22 37.324C160.276 37.352 160.332 37.338 160.388 37.282L170.174 27.958C170.314 27.818 170.482 27.748 170.678 27.748H173.156C173.296 27.748 173.38 27.804 173.408 27.916C173.464 28.028 173.436 28.14 173.324 28.252L167.36 34.216C167.304 34.272 167.29 34.342 167.318 34.426L171.812 48.496L171.854 48.622C171.854 48.874 171.714 49 171.434 49H169.208C168.984 49 168.858 48.888 168.83 48.664L165.05 36.4C165.05 36.372 165.022 36.358 164.966 36.358C164.938 36.33 164.91 36.33 164.882 36.358L159.8 41.23C159.716 41.314 159.674 41.384 159.674 41.44L158.792 48.58C158.792 48.692 158.75 48.79 158.666 48.874C158.582 48.958 158.47 49 158.33 49H156.272ZM182.876 49.21C180.72 49.21 178.998 48.734 177.71 47.782C176.422 46.83 175.778 45.626 175.778 44.17C175.778 43.946 175.792 43.764 175.82 43.624L175.862 43.12C175.918 42.84 176.072 42.7 176.324 42.7H178.298C178.41 42.7 178.494 42.742 178.55 42.826C178.634 42.91 178.662 43.008 178.634 43.12L178.592 43.456C178.508 44.044 178.648 44.604 179.012 45.136C179.376 45.668 179.908 46.102 180.608 46.438C181.336 46.746 182.162 46.9 183.086 46.9C184.57 46.9 185.802 46.536 186.782 45.808C187.79 45.052 188.294 44.128 188.294 43.036C188.294 42.42 188.084 41.916 187.664 41.524C187.272 41.132 186.796 40.824 186.236 40.6C185.704 40.376 184.836 40.068 183.632 39.676C182.26 39.228 181.126 38.808 180.23 38.416C179.362 37.996 178.62 37.436 178.004 36.736C177.416 36.036 177.122 35.154 177.122 34.09C177.122 33.81 177.136 33.586 177.164 33.418C177.388 31.626 178.242 30.198 179.726 29.134C181.238 28.07 183.1 27.538 185.312 27.538C187.44 27.538 189.12 28.028 190.352 29.008C191.612 29.96 192.242 31.192 192.242 32.704C192.242 32.984 192.228 33.194 192.2 33.334L192.158 33.46C192.102 33.74 191.948 33.88 191.696 33.88H189.806C189.666 33.88 189.554 33.838 189.47 33.754C189.414 33.67 189.4 33.572 189.428 33.46L189.47 33.334C189.582 32.382 189.232 31.584 188.42 30.94C187.608 30.296 186.46 29.974 184.976 29.974C183.52 29.974 182.316 30.296 181.364 30.94C180.44 31.584 179.978 32.452 179.978 33.544C179.978 34.384 180.342 35.028 181.07 35.476C181.798 35.924 182.946 36.4 184.514 36.904C185.97 37.352 187.132 37.772 188 38.164C188.868 38.528 189.624 39.074 190.268 39.802C190.912 40.502 191.234 41.398 191.234 42.49C191.234 42.798 191.22 43.036 191.192 43.204C190.968 44.996 190.086 46.452 188.546 47.572C187.034 48.664 185.144 49.21 182.876 49.21Z" fill="#F8F9FA"/>
<path d="M54.9383 25.5255L54.3616 25.3453L53.9339 25.7719L44.4405 35.2386L44.0114 35.6665L44.1922 36.2449C44.2866 36.5471 44.3333 36.9202 44.3333 37.3333C44.3333 39.7144 42.381 41.6667 40 41.6667C37.6189 41.6667 35.6667 39.7144 35.6667 37.3333C35.6667 36.9202 35.7134 36.5471 35.8078 36.2449L35.9883 35.6674L35.5604 35.2396L28.7604 28.4396L28.3326 28.0117L27.755 28.1922C27.4529 28.2866 27.0797 28.3333 26.6667 28.3333C26.2536 28.3333 25.8804 28.2866 25.5783 28.1922L25 28.0115L24.5721 28.4403L12.4388 40.6003L12.0119 41.0281L12.1922 41.6049C12.2879 41.9112 12.3333 42.2593 12.3333 42.6667C12.3333 45.0477 10.381 47 7.99999 47C5.61894 47 3.66666 45.0477 3.66666 42.6667C3.66666 40.2856 5.61894 38.3333 7.99999 38.3333C8.40735 38.3333 8.75549 38.3788 9.06171 38.4745L9.63853 38.6547L10.0663 38.2279L22.2263 26.0946L22.6552 25.6666L22.4745 25.0884C22.3801 24.7863 22.3333 24.4131 22.3333 24C22.3333 21.619 24.2856 19.6667 26.6667 19.6667C29.0477 19.6667 31 21.619 31 24C31 24.4131 30.9533 24.7863 30.8588 25.0884L30.6784 25.6659L31.1062 26.0938L37.9062 32.8938L38.3341 33.3216L38.9116 33.1411C39.2137 33.0467 39.5869 33 40 33C40.4131 33 40.7863 33.0467 41.0884 33.1411L41.6668 33.3219L42.0948 32.8928L51.5614 23.3994L51.988 22.9717L51.8078 22.3951C51.7121 22.0888 51.6667 21.7407 51.6667 21.3333C51.6667 18.9523 53.6189 17 56 17C58.381 17 60.3333 18.9523 60.3333 21.3333C60.3333 23.7144 58.381 25.6667 56 25.6667C55.5926 25.6667 55.2445 25.6212 54.9383 25.5255Z" stroke="#F8F9FA" stroke-width="2"/>
</svg>
